<?xml version="1.0" encoding="UTF-8" standalone="no"?>
<!-- Created with Inkscape (http://www.inkscape.org/) -->

<svg
   xmlns:dc="http://purl.org/dc/elements/1.1/"
   xmlns:cc="http://creativecommons.org/ns#"
   xmlns:rdf="http://www.w3.org/1999/02/22-rdf-syntax-ns#"
   xmlns:svg="http://www.w3.org/2000/svg"
   xmlns="http://www.w3.org/2000/svg"
   xmlns:xlink="http://www.w3.org/1999/xlink"
   xmlns:sodipodi="http://sodipodi.sourceforge.net/DTD/sodipodi-0.dtd"
   xmlns:inkscape="http://www.inkscape.org/namespaces/inkscape"
   width="210mm"
   height="297mm"
   viewBox="0 0 744.09448819 1052.3622047"
   id="svg4238"
   version="1.1"
   inkscape:version="0.91 r13725"
   sodipodi:docname="summer2017.svg">
  <defs
     id="defs4240" />
  <sodipodi:namedview
     id="base"
     pagecolor="#ffffff"
     bordercolor="#666666"
     borderopacity="1.0"
     inkscape:pageopacity="0.0"
     inkscape:pageshadow="2"
     inkscape:zoom="0.7"
     inkscape:cx="284.63851"
     inkscape:cy="514.87842"
     inkscape:document-units="px"
     inkscape:current-layer="layer1"
     showgrid="false"
     inkscape:window-width="1920"
     inkscape:window-height="983"
     inkscape:window-x="0"
     inkscape:window-y="27"
     inkscape:window-maximized="1" />
  <metadata
     id="metadata4243">
    <rdf:RDF>
      <cc:Work
         rdf:about="">
        <dc:format>image/svg+xml</dc:format>
        <dc:type
           rdf:resource="http://purl.org/dc/dcmitype/StillImage" />
        <dc:title></dc:title>
      </cc:Work>
    </rdf:RDF>
  </metadata>
  <g
     inkscape:label="Layer 1"
     inkscape:groupmode="layer"
     id="layer1">
    <path
       style="fill:#ff2a2a;fill-rule:evenodd;stroke:none;stroke-width:1px;stroke-linecap:butt;stroke-linejoin:miter;stroke-opacity:1"
       d="m 343.75944,456.65767 c -26.20735,-49.93237 -68.245,-72.59671 -121.74639,-67.73058 -36.91994,14.40406 -59.62027,35.31911 -59.54499,82.96072 31.57506,-28.24104 57.9451,-47.53268 96.83104,-44.12798 28.72549,2.77405 56.3317,14.20562 81.81151,27.59316 l 1.3242,0.65276 z"
       id="path4800"
       inkscape:connector-curvature="0"
       sodipodi:nodetypes="ccccccc"
       inkscape:export-xdpi="90"
       inkscape:export-ydpi="90" />
    <g
       id="g4894"
       transform="translate(-716.19815,-7.0710678)"
       inkscape:export-xdpi="90"
       inkscape:export-ydpi="90">
      <path
         sodipodi:nodetypes="cacccc"
         inkscape:connector-curvature="0"
         id="path4796"
         d="m 1058.7324,464.41647 c 79.4005,-57.04168 144.8556,2.94565 165.665,57.57869 34.7142,91.1387 -21.0923,215.68182 -142.4315,255.5686 130.9409,-9.6068 224.6849,-131.98992 222.2336,-241.42646 -2.7247,-79.26078 -50.8858,-133.74098 -120.2082,-157.5838 -61.0352,-20.82141 -118.8914,41.90316 -125.2589,85.86297 z"
         style="fill:#ff2a2a;fill-rule:evenodd;stroke:none;stroke-width:1px;stroke-linecap:butt;stroke-linejoin:miter;stroke-opacity:1" />
      <path
         sodipodi:nodetypes="cccccccc"
         inkscape:connector-curvature="0"
         id="path4796-7"
         d="m 1150.8746,392.14114 c -41.0138,1.61918 -75.3261,33.69988 -90.1074,70.41015 32.3138,-19.76501 76.0466,-21.40801 107.5769,0.9046 47.9738,30.86886 70.3779,91.59849 63.414,147.00151 -7.2595,67.91197 -83.6461,131.47938 -142.2888,165.51459 94.618,-29.85411 200.1587,-125.17898 201.1458,-224.97905 -0.1097,-51.75121 -25.6477,-103.49283 -69.5648,-131.83552 -20.7225,-14.0671 -44.8152,-25.77308 -70.1757,-27.01628 z"
         style="fill:#d40000;fill-rule:evenodd;stroke:none;stroke-width:1px;stroke-linecap:butt;stroke-linejoin:miter;stroke-opacity:1" />
    </g>
    <path
       style="fill:#008000;fill-rule:evenodd;stroke:none;stroke-width:1px;stroke-linecap:butt;stroke-linejoin:miter;stroke-opacity:1"
       d="m 344.06674,457.28268 c -1.15164,-6.12945 -10.79841,-23.90122 -12.56597,-36.82317 -1.74489,-12.75627 -4.78255,-27.76957 2.13302,-38.74246 4.42355,-7.0188 13.86499,-9.26001 21.6419,-11.72232 12.04954,-3.81507 25.08506,-2.0035 37.46549,-4.31638 10.10724,-1.8882 20.77179,-2.86752 29.9127,-7.7784 9.24438,-4.96646 20.33945,-10.999 23.64676,-21.08983 2.48429,-7.57977 -1.61396,-16.0776 -4.97913,-23.16088 -4.31697,-9.0867 -18.81788,-23.3425 -18.81788,-23.3425 0,0 20.15093,5.30929 27.9419,11.78943 10.90013,9.06617 17.70599,22.64254 23.64779,35.69014 4.97973,10.93498 9.64589,22.73662 9.69386,34.89558 0.0449,11.39595 -1.50685,24.41045 -8.82557,33.17952 -28.91248,35.51853 -73.58558,6.00062 -101.21071,13.12628 -15.99935,8.022 -24.80248,21.72209 -29.68416,38.29499 z"
       id="path4792"
       inkscape:connector-curvature="0"
       sodipodi:nodetypes="caaaaaaacaaaccc"
       inkscape:export-xdpi="90"
       inkscape:export-ydpi="90" />
    <path
       style="fill:#44aa00;fill-rule:evenodd;stroke:none;stroke-width:1.21728182px;stroke-linecap:butt;stroke-linejoin:miter;stroke-opacity:1"
       d="m 441.53201,313.39641 c 9.27148,20.64859 -0.61909,33.95785 -16.99356,41.40824 -19.6938,11.74204 -40.09405,4.48006 -62.00197,10.22693 -20.60549,2.67153 -36.63022,19.21507 -35.35886,39.16463 0.85499,5.74126 5.11053,20.5024 6.5018,25.6244 8.8566,-16.16048 27.01508,-27.00702 44.38542,-31.64191 20.14885,-5.37629 40.79156,8.24066 61.67356,6.50933 38.10813,0.47391 7.08264,-102.78078 1.79361,-91.29162 z"
       id="path4792-8"
       inkscape:connector-curvature="0"
       sodipodi:nodetypes="cccccacc"
       inkscape:export-xdpi="90"
       inkscape:export-ydpi="90" />
    <path
       style="opacity:0.569;fill:#d40000;fill-opacity:1;stroke:none;stroke-width:4;stroke-miterlimit:4;stroke-dasharray:none;stroke-opacity:1"
       d="m 382.62964,1617.9451 c -2.40806,32.5927 2.41639,65.6704 14.40564,96.0942 12.80065,31.9578 33.19788,60.9307 59.49091,83.2246 23.48489,20.2816 51.6325,35.0798 81.52131,43.3462 32.10664,8.8378 66.25086,9.8743 98.83692,3.0915 32.61357,-6.8027 63.50441,-21.4067 89.4816,-42.263 24.43605,-19.7314 44.64516,-44.8413 58.18118,-73.212 14.5021,-29.7065 21.98854,-62.9158 21.40494,-95.9727 -0.274,-33.0841 -8.6686,-65.9355 -23.7158,-95.3663 -15.91358,-30.5111 -39.09394,-57.2908 -67.4725,-76.8349 -25.3874,-17.8249 -54.86675,-29.7208 -85.42359,-34.9467 -33.14315,-5.6595 -67.61264,-3.1015 -99.59808,7.1736 -31.77375,10.0957 -60.89714,27.9829 -84.63012,51.3604 -24.35202,24.3536 -42.93852,54.526 -53.13357,87.4646 -5.04823,15.158 -7.59674,30.9947 -9.34884,46.8405 z"
       id="path4898"
       inkscape:connector-curvature="0" />
    <text
       xml:space="preserve"
       style="font-style:normal;font-weight:normal;font-size:40px;line-height:125%;font-family:sans-serif;letter-spacing:0px;word-spacing:0px;fill:#c87137;fill-opacity:1;stroke:#c87137;stroke-width:1px;stroke-linecap:butt;stroke-linejoin:miter;stroke-opacity:1"
       id="text4920"
       sodipodi:linespacing="125%"
       x="-55.558392"
       y="-138.3909"
       transform="translate(-224.25387,-1077.8327)"
       inkscape:export-xdpi="90"
       inkscape:export-ydpi="90"><textPath
         xlink:href="#path4898"
         id="textPath4926"><tspan
   id="tspan4922"
   style="fill:#c87137;fill-opacity:1;stroke:#c87137;stroke-opacity:1"><tspan
     id="tspan4924"
     y="823.53247"
     x="416.18195"
     style="fill:#c87137;fill-opacity:1;stroke:#c87137;stroke-opacity:1">June 26 - June 30</tspan></tspan></textPath></text>
    <flowRoot
       xml:space="preserve"
       id="flowRoot4934"
       style="font-style:normal;font-weight:normal;font-size:40px;line-height:125%;font-family:sans-serif;letter-spacing:0px;word-spacing:0px;fill:#c87137;fill-opacity:1;stroke:none;stroke-width:1px;stroke-linecap:butt;stroke-linejoin:miter;stroke-opacity:1"
       transform="translate(-284.86302,-32.324882)"
       inkscape:export-xdpi="90"
       inkscape:export-ydpi="90"><flowRegion
         id="flowRegion4936"><rect
           id="rect4938"
           width="451.53821"
           height="119.198"
           x="526.28949"
           y="492.7377"
           style="fill:#c87137;fill-opacity:1" /></flowRegion><flowPara
         id="flowPara4940"
         style="font-style:normal;font-variant:normal;font-weight:normal;font-stretch:normal;font-size:90px;font-family:'Arial Black';-inkscape-font-specification:'Arial Black, ';fill:#c87137;fill-opacity:1">2017</flowPara></flowRoot>    <flowRoot
       xml:space="preserve"
       id="flowRoot4942"
       style="fill:black;stroke:none;stroke-opacity:1;stroke-width:1px;stroke-linejoin:miter;stroke-linecap:butt;fill-opacity:1;font-family:sans-serif;font-style:normal;font-weight:normal;font-size:40px;line-height:125%;letter-spacing:0px;word-spacing:0px"><flowRegion
         id="flowRegion4944"><rect
           id="rect4946"
           width="96.974648"
           height="55.558392"
           x="340.42142"
           y="206.86452" /></flowRegion><flowPara
         id="flowPara4948"></flowPara></flowRoot>    <flowRoot
       xml:space="preserve"
       id="flowRoot4934-2"
       style="font-style:normal;font-weight:normal;font-size:40px;line-height:125%;font-family:sans-serif;letter-spacing:0px;word-spacing:0px;fill:#44aa00;fill-opacity:1;stroke:none;stroke-width:1px;stroke-linecap:butt;stroke-linejoin:miter;stroke-opacity:1"
       transform="translate(-522.53776,51.484519)"
       inkscape:export-xdpi="90"
       inkscape:export-ydpi="90"><flowRegion
         id="flowRegion4936-6"><rect
           id="rect4938-5"
           width="701.0459"
           height="288.90359"
           x="526.28949"
           y="492.7377"
           style="fill:#44aa00;fill-opacity:1" /></flowRegion><flowPara
         id="flowPara4940-2"
         style="font-style:normal;font-variant:normal;font-weight:normal;font-stretch:normal;font-size:45px;font-family:'Arial Black';-inkscape-font-specification:'Arial Black, ';text-align:center;text-anchor:middle;fill:#44aa00;fill-opacity:1">Summer</flowPara><flowPara
         style="font-style:normal;font-variant:normal;font-weight:normal;font-stretch:normal;font-size:45px;font-family:'Arial Black';-inkscape-font-specification:'Arial Black, ';text-align:center;text-anchor:middle;fill:#44aa00;fill-opacity:1"
         id="flowPara4974">Conference</flowPara></flowRoot>    <path
       style="fill:#c87137;fill-rule:evenodd;stroke:none;stroke-width:1px;stroke-linecap:butt;stroke-linejoin:miter;stroke-opacity:1"
       d="M 331.5745,434.45622 C 313.35032,408.26676 308.51349,383.6856 301.65267,352.89251 l -10.28862,24.20441 -43.65989,2.76566 c 29.44974,5.3446 53.76692,12.16395 65.67398,37.0965 6.40545,14.65069 12.37437,23.83554 21.11597,31.01728 l 11.76275,9.66379 z"
       id="path4802"
       inkscape:connector-curvature="0"
       sodipodi:nodetypes="cccccscc"
       inkscape:export-xdpi="90"
       inkscape:export-ydpi="90" />
    <rect
       style="opacity:0;fill:#ffffff;fill-opacity:1;stroke:none;stroke-width:4;stroke-miterlimit:4;stroke-dasharray:none;stroke-opacity:1"
       id="rect5044"
       width="462.14285"
       height="507.85715"
       x="136.42857"
       y="282.36221"
       inkscape:export-xdpi="90"
       inkscape:export-ydpi="90" />
  </g>
</svg>
